<svg width="454" height="233" viewBox="0 0 454 233" fill="none" xmlns="http://www.w3.org/2000/svg">
<g clip-path="url(#clip0_1996_7196)">
<path d="M139.086 210.003C139.086 197.703 177.786 187.603 225.486 187.603C273.186 187.603 311.886 197.703 311.886 210.103C311.869 211.507 311.415 212.871 310.586 214.003C303.386 224.503 267.986 232.503 225.486 232.503C177.786 232.503 139.086 222.403 139.086 210.003Z" fill="#E1E8F3"/>
<path d="M121.886 194.703H38.6863C36.5541 194.708 34.4821 195.411 32.7863 196.703L0.78632 221.803C0.454758 222.057 0.210723 222.409 0.0882336 222.808C-0.034256 223.207 -0.0290965 223.635 0.102993 224.031C0.235082 224.427 0.487518 224.773 0.825114 225.019C1.16271 225.265 1.56864 225.399 1.98632 225.403H89.8863C92.116 225.382 94.2566 224.525 95.8863 223.003L122.786 197.003C122.982 196.822 123.119 196.587 123.179 196.327C123.239 196.067 123.219 195.795 123.121 195.546C123.024 195.298 122.854 195.085 122.634 194.934C122.414 194.784 122.153 194.703 121.886 194.703Z" fill="#E1E8F3"/>
<path d="M451.986 194.703H368.686C366.554 194.708 364.482 195.411 362.786 196.703L330.786 221.803C330.455 222.057 330.211 222.409 330.088 222.808C329.966 223.207 329.971 223.635 330.103 224.031C330.235 224.427 330.488 224.773 330.825 225.019C331.163 225.265 331.569 225.399 331.986 225.403H419.886C422.116 225.382 424.257 224.525 425.886 223.003L452.786 197.003C453 196.839 453.156 196.612 453.234 196.354C453.311 196.095 453.305 195.819 453.216 195.565C453.128 195.31 452.961 195.09 452.74 194.935C452.52 194.781 452.256 194.7 451.986 194.703Z" fill="#E1E8F3"/>
<path d="M139.086 205.903C139.086 193.603 177.786 183.503 225.486 183.503C273.186 183.503 311.886 193.603 311.886 206.003C311.869 207.407 311.415 208.771 310.586 209.903C303.386 220.403 267.986 228.403 225.486 228.403C177.786 228.403 139.086 218.303 139.086 205.903Z" fill="#C3D1EB"/>
<path d="M310.586 209.903C303.386 220.403 268.086 228.403 225.486 228.403C177.786 228.403 139.086 218.303 139.086 205.903C139.086 205.903 154.086 224.003 222.486 224.003C281.286 224.103 304.986 213.003 310.586 209.903Z" fill="#F0F4FF"/>
<path d="M274.684 200.703C271.384 197.103 250.584 194.303 225.484 194.303C199.284 194.303 177.884 197.303 175.984 201.103C176.884 198.903 182.884 191.303 225.484 191.303C264.684 191.303 272.984 198.103 274.684 200.703Z" fill="#F0F4FF"/>
<path d="M122.585 194.703L105.085 69.5034C104.988 68.8587 104.662 68.2706 104.165 67.8479C103.669 67.4251 103.037 67.1962 102.385 67.2034H78.7847C78.3958 67.2057 78.0119 67.2908 77.6585 67.4529C77.305 67.615 76.9901 67.8506 76.7347 68.1438C76.4794 68.437 76.2893 68.7813 76.1772 69.1536C76.0651 69.526 76.0336 69.9179 76.0847 70.3034L81.9847 117.603C82.0419 118.043 82.0042 118.489 81.8742 118.913C81.7443 119.336 81.525 119.727 81.2312 120.059C80.9375 120.391 80.576 120.655 80.1712 120.836C79.7664 121.016 79.3277 121.107 78.8847 121.103H51.8847C51.0685 121.109 50.2814 120.8 49.686 120.242C49.0905 119.684 48.7321 118.918 48.6847 118.103L46.4847 69.9034C46.4506 69.2076 46.1522 68.5511 45.6504 68.0679C45.1486 67.5847 44.4813 67.3112 43.7847 67.3034H21.6847C21.3196 67.2961 20.9568 67.3643 20.6193 67.5037C20.2818 67.6432 19.9767 67.8508 19.7232 68.1137C19.4697 68.3766 19.2732 68.6891 19.1461 69.0314C19.0191 69.3738 18.9641 69.7388 18.9847 70.1034L21.9847 152.503C22.0453 153.765 22.587 154.955 23.4985 155.829C24.4099 156.704 25.6218 157.195 26.8847 157.203H86.9847L91.6847 194.903H122.585V194.703Z" fill="#97A6BC"/>
<path d="M452.688 194.703L435.188 69.5034C435.091 68.8587 434.765 68.2706 434.268 67.8479C433.772 67.4251 433.14 67.1962 432.488 67.2034H408.888C408.499 67.2057 408.115 67.2908 407.762 67.4529C407.408 67.615 407.093 67.8506 406.838 68.1438C406.582 68.437 406.392 68.7813 406.28 69.1536C406.168 69.526 406.137 69.9179 406.188 70.3034L412.088 117.603C412.145 118.043 412.107 118.489 411.977 118.913C411.847 119.336 411.628 119.727 411.334 120.059C411.041 120.391 410.679 120.655 410.274 120.836C409.87 121.016 409.431 121.107 408.988 121.103H381.988C381.172 121.109 380.385 120.8 379.789 120.242C379.194 119.684 378.835 118.918 378.788 118.103L376.588 69.9034C376.554 69.2076 376.255 68.5511 375.754 68.0679C375.252 67.5847 374.584 67.3112 373.888 67.3034H351.888C351.523 67.2961 351.16 67.3643 350.822 67.5037C350.485 67.6432 350.18 67.8508 349.926 68.1137C349.673 68.3766 349.476 68.6891 349.349 69.0314C349.222 69.3738 349.167 69.7388 349.188 70.1034L352.188 152.503C352.248 153.765 352.79 154.955 353.702 155.829C354.613 156.704 355.825 157.195 357.088 157.203H417.188L421.888 194.903H452.688V194.703Z" fill="#97A6BC"/>
<path d="M104.389 70.8034L91.1887 220.403C91.0783 221.762 90.4622 223.029 89.4623 223.955C88.4624 224.881 87.1515 225.398 85.7887 225.403H65.9887C65.2186 225.403 64.4573 225.24 63.7551 224.924C63.0528 224.608 62.4258 224.146 61.9153 223.569C61.4048 222.993 61.0226 222.314 60.7939 221.579C60.5652 220.843 60.4953 220.068 60.5887 219.303L68.8887 149.203L9.58874 150.203C8.82265 150.216 8.06317 150.06 7.3648 149.745C6.66642 149.429 6.04647 148.963 5.5494 148.38C5.05234 147.797 4.69049 147.111 4.48982 146.372C4.28915 145.632 4.25463 144.858 4.38874 144.103L4.58874 142.803L18.1887 69.9034C18.3721 68.9224 18.8919 68.0361 19.6586 67.3972C20.4253 66.7584 21.3908 66.4069 22.3887 66.4034H41.2887C41.9077 66.4137 42.5172 66.5567 43.0761 66.8229C43.6351 67.089 44.1303 67.472 44.5285 67.946C44.9267 68.42 45.2184 68.974 45.3841 69.5704C45.5498 70.1669 45.5854 70.792 45.4887 71.4034L37.3887 117.403C37.3121 117.838 37.3326 118.283 37.4489 118.709C37.5651 119.134 37.7743 119.528 38.0612 119.863C38.3481 120.197 38.7057 120.464 39.1081 120.644C39.5106 120.824 39.948 120.913 40.3887 120.903H68.6887L75.2887 69.8034C75.4273 68.8383 75.9069 67.9547 76.6406 67.3127C77.3744 66.6707 78.3138 66.3126 79.2887 66.3034H100.389C100.947 66.3357 101.494 66.4777 101.997 66.7215C102.5 66.9652 102.951 67.3058 103.322 67.7238C103.694 68.1418 103.979 68.6289 104.162 69.1574C104.345 69.6858 104.422 70.2452 104.389 70.8034Z" fill="#CAD5E6"/>
<path d="M69.2872 142.803L68.7872 149.203L9.48718 150.203C8.72108 150.216 7.96161 150.06 7.26323 149.745C6.56486 149.429 5.9449 148.963 5.44784 148.38C4.95078 147.797 4.58893 147.111 4.38826 146.372C4.18759 145.632 4.15307 144.858 4.28718 144.103L4.48718 142.803H69.2872Z" fill="#F0F4FF"/>
<path d="M104.389 70.8034L91.1891 220.403C91.0786 221.762 90.4625 223.029 89.4626 223.955C88.4627 224.881 87.1518 225.398 85.7891 225.403H82.7891L98.4891 66.4034H100.389C100.945 66.4165 101.492 66.5423 101.998 66.7731C102.504 67.004 102.958 67.3352 103.332 67.7466C103.706 68.158 103.992 68.6411 104.174 69.1665C104.356 69.692 104.429 70.2488 104.389 70.8034Z" fill="#F0F4FF"/>
<path d="M37.2875 117.503C37.2108 117.938 37.2314 118.383 37.3476 118.809C37.4639 119.234 37.673 119.628 37.9599 119.963C38.2469 120.297 38.6044 120.564 39.0069 120.744C39.4094 120.924 39.8467 121.013 40.2875 121.003H34.4875C33.9871 121.007 33.4921 120.9 33.0372 120.692C32.5824 120.483 32.1787 120.178 31.8547 119.796C31.5306 119.415 31.294 118.967 31.1614 118.485C31.0289 118.002 31.0037 117.497 31.0875 117.003L39.9875 66.5034H41.2875C41.9065 66.5137 42.516 66.6568 43.0749 66.9229C43.6338 67.189 44.1291 67.572 44.5273 68.046C44.9254 68.52 45.2172 69.074 45.3829 69.6704C45.5485 70.2669 45.5842 70.892 45.4875 71.5034L37.2875 117.503Z" fill="#F0F4FF"/>
<path d="M434.385 70.8034L421.185 220.403C421.074 221.762 420.458 223.029 419.458 223.955C418.458 224.881 417.148 225.398 415.785 225.403H395.985C395.215 225.403 394.453 225.24 393.751 224.924C393.049 224.608 392.422 224.146 391.911 223.569C391.401 222.993 391.019 222.314 390.79 221.579C390.561 220.843 390.491 220.068 390.585 219.303L398.885 149.203L339.585 150.203C338.819 150.216 338.059 150.06 337.361 149.745C336.663 149.429 336.043 148.963 335.545 148.38C335.048 147.797 334.687 147.111 334.486 146.372C334.285 145.632 334.251 144.858 334.385 144.103L334.585 142.803L348.185 69.9034C348.368 68.9224 348.888 68.0361 349.655 67.3972C350.421 66.7584 351.387 66.4069 352.385 66.4034H371.285C371.904 66.4137 372.513 66.5567 373.072 66.8229C373.631 67.089 374.126 67.472 374.525 67.946C374.923 68.42 375.215 68.974 375.38 69.5704C375.546 70.1669 375.582 70.792 375.485 71.4034L367.385 117.403C367.308 117.838 367.329 118.283 367.445 118.709C367.561 119.134 367.77 119.528 368.057 119.863C368.344 120.197 368.702 120.464 369.104 120.644C369.507 120.824 369.944 120.913 370.385 120.903H398.685L405.285 69.8034C405.423 68.8383 405.903 67.9547 406.637 67.3127C407.37 66.6707 408.31 66.3126 409.285 66.3034H430.385C430.949 66.318 431.504 66.4483 432.016 66.6861C432.528 66.924 432.985 67.2644 433.36 67.6862C433.735 68.108 434.02 68.6023 434.196 69.1385C434.372 69.6747 434.436 70.2414 434.385 70.8034Z" fill="#CAD5E6"/>
<path d="M399.385 142.803L398.885 149.203L339.585 150.203C338.819 150.216 338.059 150.06 337.361 149.745C336.663 149.429 336.043 148.963 335.545 148.38C335.048 147.797 334.687 147.111 334.486 146.372C334.285 145.632 334.251 144.858 334.385 144.103L334.585 142.803H399.385Z" fill="#F0F4FF"/>
<path d="M434.385 70.8034L421.185 220.403C421.075 221.762 420.459 223.029 419.459 223.955C418.459 224.881 417.148 225.398 415.785 225.403H412.785L428.485 66.4034H430.385C430.946 66.3989 431.502 66.5128 432.016 66.7378C432.531 66.9628 432.991 67.2937 433.369 67.709C433.747 68.1243 434.032 68.6146 434.207 69.1478C434.382 69.681 434.443 70.2452 434.385 70.8034Z" fill="#F0F4FF"/>
<path d="M367.385 117.503C367.308 117.938 367.329 118.383 367.445 118.809C367.562 119.234 367.771 119.628 368.058 119.963C368.345 120.297 368.702 120.564 369.105 120.744C369.507 120.924 369.944 121.013 370.385 121.003H364.585C364.085 121.007 363.59 120.9 363.135 120.692C362.68 120.483 362.276 120.178 361.952 119.796C361.628 119.415 361.392 118.967 361.259 118.485C361.127 118.002 361.101 117.497 361.185 117.003L370.085 66.5034H371.385C372.004 66.5137 372.614 66.6568 373.173 66.9229C373.731 67.189 374.227 67.572 374.625 68.046C375.023 68.52 375.315 69.074 375.481 69.6704C375.646 70.2669 375.682 70.892 375.585 71.5034L367.385 117.503Z" fill="#F0F4FF"/>
<path opacity="0.28" d="M185.988 101.3L165.488 205.3C164.388 210.9 167.988 216.2 172.888 216.2H281.488C286.288 216.2 289.888 211.1 288.988 205.7L272.188 101.7C271.488 97.5004 268.388 94.5004 264.688 94.5004H193.488C189.888 94.4004 186.788 97.3004 185.988 101.3Z" fill="#C0CDDD"/>
<path d="M278.585 107.803L288.485 140.703C288.524 140.87 288.599 141.025 288.705 141.159C288.811 141.293 288.945 141.402 289.098 141.478C289.251 141.555 289.418 141.596 289.589 141.601C289.759 141.605 289.929 141.572 290.085 141.503C290.355 141.399 290.576 141.197 290.705 140.938C290.835 140.68 290.863 140.382 290.785 140.103L284.285 106.403C284.182 105.978 283.989 105.58 283.718 105.237C283.448 104.894 283.106 104.613 282.717 104.413C282.328 104.214 281.9 104.101 281.463 104.082C281.026 104.063 280.59 104.138 280.185 104.303C279.541 104.595 279.024 105.111 278.73 105.754C278.436 106.397 278.385 107.125 278.585 107.803Z" fill="#C0CDDD"/>
<path d="M259.887 119.702L266.287 145.102C266.31 145.209 266.355 145.31 266.418 145.399C266.482 145.488 266.563 145.563 266.657 145.619C266.751 145.675 266.855 145.711 266.963 145.726C267.072 145.74 267.182 145.732 267.287 145.702C267.38 145.678 267.467 145.635 267.542 145.575C267.618 145.516 267.681 145.443 267.728 145.359C267.775 145.275 267.804 145.182 267.814 145.087C267.824 144.991 267.815 144.894 267.787 144.802L263.687 118.902C263.637 118.61 263.522 118.333 263.35 118.092C263.179 117.85 262.955 117.65 262.696 117.506C262.437 117.362 262.149 117.278 261.853 117.26C261.557 117.242 261.261 117.291 260.987 117.402C260.574 117.61 260.243 117.948 260.044 118.364C259.844 118.781 259.789 119.251 259.887 119.702Z" fill="#C0CDDD"/>
<path d="M176.485 111.003L168.185 136.303C168.155 136.415 168.101 136.519 168.027 136.607C167.952 136.695 167.859 136.766 167.753 136.813C167.648 136.861 167.534 136.885 167.418 136.883C167.303 136.882 167.189 136.854 167.085 136.803C166.898 136.721 166.746 136.576 166.655 136.394C166.564 136.211 166.539 136.002 166.585 135.803L172.585 109.903C172.662 109.618 172.798 109.351 172.985 109.122C173.172 108.893 173.406 108.706 173.67 108.573C173.935 108.441 174.225 108.366 174.52 108.354C174.816 108.342 175.111 108.393 175.385 108.503C175.844 108.712 176.21 109.082 176.413 109.543C176.616 110.005 176.642 110.524 176.485 111.003Z" fill="#C0CDDD"/>
<path d="M192.984 118.802L182.184 165.802C182.16 165.909 182.116 166.01 182.052 166.099C181.988 166.188 181.907 166.263 181.813 166.319C181.72 166.375 181.615 166.411 181.507 166.426C181.399 166.44 181.289 166.432 181.184 166.402C181.091 166.378 181.004 166.335 180.928 166.275C180.852 166.216 180.789 166.143 180.742 166.059C180.696 165.975 180.666 165.882 180.656 165.787C180.646 165.691 180.655 165.594 180.684 165.502L189.184 118.002C189.234 117.71 189.349 117.433 189.52 117.192C189.692 116.95 189.915 116.75 190.174 116.606C190.433 116.462 190.721 116.378 191.017 116.36C191.313 116.342 191.609 116.391 191.884 116.502C192.331 116.666 192.697 116.998 192.903 117.428C193.108 117.858 193.137 118.351 192.984 118.802Z" fill="#C0CDDD"/>
<path d="M215.885 124.299L210.685 158.399C210.671 158.511 210.632 158.618 210.57 158.712C210.509 158.806 210.427 158.885 210.331 158.943C210.234 159.001 210.126 159.036 210.014 159.045C209.902 159.055 209.79 159.04 209.685 158.999C209.498 158.938 209.338 158.816 209.229 158.653C209.12 158.49 209.069 158.295 209.085 158.099L211.885 123.699C211.928 123.412 212.034 123.138 212.195 122.896C212.355 122.653 212.566 122.449 212.814 122.297C213.061 122.144 213.339 122.048 213.628 122.014C213.916 121.98 214.209 122.009 214.485 122.099C214.721 122.152 214.945 122.25 215.143 122.389C215.342 122.528 215.511 122.705 215.641 122.909C215.771 123.113 215.86 123.341 215.901 123.58C215.943 123.819 215.938 124.063 215.885 124.299Z" fill="#C0CDDD"/>
<path d="M242.684 123.603L243.984 177.703C243.983 177.817 243.957 177.928 243.91 178.031C243.863 178.134 243.795 178.226 243.71 178.301C243.626 178.377 243.526 178.433 243.419 178.468C243.311 178.503 243.197 178.515 243.084 178.503C242.894 178.47 242.721 178.372 242.594 178.227C242.466 178.081 242.393 177.897 242.384 177.703L238.684 123.603C238.676 123.312 238.733 123.023 238.85 122.756C238.967 122.489 239.142 122.251 239.362 122.06C239.582 121.869 239.841 121.729 240.122 121.65C240.402 121.571 240.697 121.555 240.984 121.603C241.451 121.697 241.873 121.945 242.182 122.308C242.49 122.671 242.667 123.127 242.684 123.603Z" fill="#C0CDDD"/>
<path d="M138.784 74.5034C137.777 73.3233 136.936 72.0112 136.284 70.6034L133.984 55.2034L139.284 60.1034L138.784 74.5034Z" fill="#97A6BC"/>
<path d="M287.988 79.7034C285.18 85.0327 281.646 89.9462 277.488 94.3034C268.488 103.903 253.287 114.803 230.688 114.803C214.787 114.803 202.987 109.503 194.587 103.103C186.681 97.123 180.363 89.2942 176.188 80.3034L287.988 79.7034Z" fill="#97A6BC"/>
<path d="M287.988 79.7034C285.18 85.0327 281.646 89.9462 277.488 94.3034C268.135 97.8053 258.4 100.189 248.488 101.403C225.288 104.503 207.188 104.303 194.587 103.103C186.681 97.123 180.363 89.2942 176.188 80.3034L287.988 79.7034Z" fill="#97A6BC"/>
<path d="M323.185 54.6034C322.649 59.3585 321.781 64.07 320.585 68.7034C320.246 69.9807 319.706 71.1958 318.985 72.3034C316.885 75.7034 312.885 79.4034 306.385 82.9034C305.285 83.5034 303.985 84.1034 302.685 84.7034C301.685 85.2034 300.685 85.6034 299.585 86.1034C298.085 86.7034 296.585 87.3034 294.985 87.9034C288.449 90.1297 281.766 91.9006 274.985 93.2034C274.385 93.3034 273.885 93.4034 273.285 93.5034C271.785 93.8034 269.985 94.0034 268.085 94.2034C260.085 95.1034 249.485 95.7034 238.185 95.9034C236.085 95.9034 233.985 96.0034 231.885 96.0034C221.185 96.1034 210.385 95.8034 200.985 95.3034C198.985 95.2034 196.985 95.1034 195.185 94.9034C190.556 94.6094 185.948 94.0417 181.385 93.2034C176.285 92.2034 171.685 91.1034 167.585 89.9034C165.885 89.4034 164.285 88.9034 162.685 88.4034C150.285 84.3034 142.785 79.3034 138.885 74.7034C138.322 74.0864 137.82 73.4166 137.385 72.7034C136.975 72.1138 136.639 71.4756 136.385 70.8034C136.064 70.1709 135.828 69.4983 135.685 68.8034C134.832 65.3806 134.197 61.9069 133.785 58.4034C133.385 55.1034 133.285 52.9034 133.285 52.9034L228.285 60.0034L323.285 54.7034L323.185 54.6034Z" fill="#EBF2FF"/>
<path d="M323.086 54.4034C322.914 55.4279 322.424 56.3723 321.686 57.1034C319.186 60.0034 313.186 64.3034 302.986 68.2034C301.686 68.7034 300.286 69.2034 298.786 69.7034C298.086 69.9034 297.386 70.2034 296.686 70.4034C295.186 70.9034 293.586 71.4034 291.886 71.8034C285.351 73.635 278.704 75.038 271.986 76.0034C270.186 76.3034 268.286 76.6034 266.286 76.8034C256.897 77.9927 247.449 78.6604 237.986 78.8034C235.986 78.8034 233.886 78.9034 231.786 78.9034H231.686C220.986 78.9034 211.086 78.4034 202.186 77.6034C200.186 77.4034 198.186 77.2034 196.286 77.0034C187.535 76.0399 178.852 74.5371 170.286 72.5034C168.586 72.1034 166.886 71.6034 165.286 71.2034C150.386 67.1034 140.586 62.0034 136.086 57.8034C135.299 57.0838 134.595 56.2789 133.986 55.4034C133.441 54.6797 133.127 53.8084 133.086 52.9034C133.086 45.8034 161.086 30.7034 232.186 30.7034C303.286 30.6034 323.086 49.5034 323.086 54.4034Z" fill="#97A6BC"/>
<path d="M191.187 38.8034L139.187 60.1034C137.202 58.7225 135.419 57.0735 133.887 55.2034L189.487 37.9034L191.187 38.8034Z" fill="#97A6BC"/>
<path d="M323.085 54.5034C322.885 55.4892 322.398 56.3938 321.685 57.1034L268.285 38.8034L269.985 38.0034L323.085 54.5034Z" fill="#97A6BC"/>
<path d="M199.985 44.3034L170.285 72.4034C168.585 72.0034 166.885 71.5034 165.285 71.1034L198.185 44.2034L199.985 44.3034Z" fill="#97A6BC"/>
<path d="M216.285 47.6034L202.185 77.6034C200.185 77.4034 198.185 77.2034 196.285 77.0034L214.485 47.5034L216.285 47.6034Z" fill="#97A6BC"/>
<path d="M272.086 76.1034C270.286 76.4034 268.286 76.7034 266.386 76.9034L252.586 47.6034L254.486 47.5034L272.086 76.1034Z" fill="#97A6BC"/>
<path d="M237.988 78.9034C235.988 78.9034 233.887 79.0034 231.788 79.0034H231.688L234.088 49.5034L235.988 49.4034L237.988 78.9034Z" fill="#97A6BC"/>
<path d="M302.885 68.2034C301.585 68.7034 300.185 69.2034 298.685 69.7034L262.785 44.3034L264.685 44.2034L302.885 68.2034Z" fill="#97A6BC"/>
<path d="M238.085 95.7034C235.985 95.7034 233.885 95.8034 231.785 95.8034V78.9034L237.985 78.8034L238.085 95.7034Z" fill="#97A6BC"/>
<path d="M273.085 93.3034C271.485 93.6034 269.785 93.8034 267.885 94.0034L266.285 76.8034L271.985 76.0034L273.085 93.3034Z" fill="#97A6BC"/>
<path d="M306.285 82.8034C305.185 83.4034 303.885 84.0034 302.585 84.6034L298.785 69.6034L302.885 68.2034L306.285 82.8034Z" fill="#97A6BC"/>
<path d="M202.188 77.6034L200.988 95.1034C198.988 95.0034 196.987 94.9034 195.188 94.7034L196.388 77.0034L202.188 77.6034Z" fill="#97A6BC"/>
<path d="M170.286 72.4034L167.486 89.7034C165.786 89.2034 164.186 88.7034 162.586 88.2034L165.186 71.1034L170.286 72.4034Z" fill="#97A6BC"/>
<path d="M139.287 60.3034L137.287 72.6034C136.877 72.0138 136.541 71.3756 136.287 70.7034C135.966 70.0709 135.731 69.3983 135.587 68.7034C134.734 65.2806 134.1 61.8069 133.688 58.3034L133.988 55.3034C133.988 55.3034 135.688 57.3034 136.388 58.0034C136.988 58.6034 139.287 60.3034 139.287 60.3034Z" fill="#97A6BC"/>
<path d="M227.487 61.4034C256.924 61.4034 280.787 54.6429 280.787 46.3034C280.787 37.9639 256.924 31.2034 227.487 31.2034C198.051 31.2034 174.188 37.9639 174.188 46.3034C174.188 54.6429 198.051 61.4034 227.487 61.4034Z" fill="#97A6BC"/>
<path d="M276.186 43.9034C276.186 43.9034 272.286 48.3034 262.686 52.1034C255.586 54.9034 245.386 57.3034 231.386 57.3034C224.677 57.3477 217.979 56.7449 211.386 55.5034C192.686 51.9034 184.586 44.1034 184.586 44.1034C184.586 44.1034 188.686 13.7034 214.286 3.40342C220.209 1.08304 226.525 -0.0714334 232.886 0.00342015C268.086 0.00342015 276.186 43.9034 276.186 43.9034Z" fill="#EBF2FF"/>
</g>
<defs>
<clipPath id="clip0_1996_7196">
<rect width="453.287" height="232.503" fill="white"/>
</clipPath>
</defs>
</svg>
