<svg width="509" height="257" viewBox="0 0 509 257" fill="none" xmlns="http://www.w3.org/2000/svg">
<g clip-path="url(#clip0_1996_7264)">
<path d="M9.0392 237.732C-14.2935 213.039 10.6667 146.973 48.3087 106.57C94.0823 57.4509 157.183 16.1321 279.161 30.1831C379.881 41.7914 442.411 92.6924 463.682 118.908C497.504 160.577 521.939 219.372 501.569 243.688C467.386 284.504 326.151 215.057 249.543 213.642C172.934 212.226 61.1492 292.783 9.0392 237.732Z" fill="#F2F5FF"/>
<path d="M370.98 198.281H105.119L49.1996 15.1098C48.6644 13.3607 48.5467 11.5101 48.8559 9.70711C49.1652 7.90408 49.8927 6.19897 50.98 4.72903C52.0673 3.25909 53.484 2.06538 55.1159 1.24401C56.7479 0.422637 58.5496 -0.00346001 60.3761 2.11601e-05H301.812C304.312 -0.000196948 306.745 0.803572 308.755 2.29296C310.764 3.78235 312.243 5.87864 312.973 8.27311L370.98 198.281Z" fill="#D7E4F7"/>
<path d="M327.439 176.475H136.706C134.183 176.475 131.728 175.664 129.7 174.162C127.672 172.659 126.179 170.545 125.44 168.129L83.0944 29.4129C82.8247 28.5328 82.7651 27.6016 82.9202 26.6942C83.0753 25.7868 83.441 24.9286 83.9876 24.1885C84.5343 23.4485 85.2468 22.8473 86.0677 22.4333C86.8886 22.0194 87.7951 21.8042 88.7142 21.8052H279.444C281.967 21.8056 284.422 22.6167 286.45 24.119C288.478 25.6214 289.971 27.7359 290.71 30.1515L333.057 168.868C333.327 169.748 333.387 170.679 333.232 171.586C333.076 172.494 332.711 173.352 332.164 174.092C331.618 174.832 330.905 175.433 330.084 175.847C329.263 176.261 328.357 176.476 327.438 176.475H327.439Z" fill="#9BABC4"/>
<mask id="path-4-outside-1_1996_7264" maskUnits="userSpaceOnUse" x="191" y="144" width="73" height="21" fill="black">
<rect fill="white" x="191" y="144" width="73" height="21"/>
<path d="M197.4 164.224C196.425 164.224 195.54 164.139 194.744 163.97C193.948 163.791 193.327 163.557 192.879 163.269C192.431 162.97 192.208 162.647 192.208 162.299C192.208 162.13 192.287 161.876 192.446 161.538C192.605 161.19 192.794 160.882 193.013 160.613C193.242 160.344 193.451 160.21 193.64 160.21C193.71 160.21 193.869 160.265 194.117 160.374C194.625 160.583 195.127 160.757 195.624 160.896C196.132 161.036 196.714 161.105 197.37 161.105C198.246 161.105 198.937 160.867 199.444 160.389C199.952 159.902 200.205 159.23 200.205 158.375C200.205 157.4 199.947 156.664 199.429 156.167C198.922 155.669 198.076 155.42 196.893 155.42H194.013C193.635 155.42 193.376 155.341 193.237 155.182C193.098 155.023 193.028 154.754 193.028 154.376L193.536 146.483C193.555 146.115 193.65 145.851 193.819 145.692C193.988 145.523 194.267 145.438 194.655 145.438H202.473C202.752 145.438 202.951 145.543 203.07 145.752C203.199 145.961 203.264 146.299 203.264 146.766V147.468C203.264 147.836 203.199 148.104 203.07 148.273C202.951 148.442 202.752 148.527 202.473 148.527H197.117L196.848 152.317H197.534C199.683 152.317 201.329 152.77 202.473 153.675C203.627 154.57 204.204 156.102 204.204 158.27C204.204 159.673 203.876 160.822 203.219 161.717C202.563 162.602 201.717 163.244 200.683 163.642C199.658 164.03 198.564 164.224 197.4 164.224ZM227.485 164.224C226.182 164.224 225.058 163.846 224.113 163.09C223.168 162.334 222.442 161.245 221.935 159.822C221.437 158.39 221.188 156.684 221.188 154.704C221.188 152.735 221.437 151.039 221.935 149.616C222.442 148.194 223.168 147.105 224.113 146.349C225.058 145.593 226.182 145.215 227.485 145.215C228.788 145.215 229.907 145.593 230.842 146.349C231.787 147.105 232.508 148.194 233.006 149.616C233.513 151.039 233.767 152.735 233.767 154.704C233.767 156.684 233.513 158.39 233.006 159.822C232.508 161.245 231.787 162.334 230.842 163.09C229.907 163.846 228.788 164.224 227.485 164.224ZM227.485 161.105C228.231 161.105 228.803 160.563 229.201 159.479C229.599 158.395 229.798 156.803 229.798 154.704C229.798 152.615 229.599 151.029 229.201 149.945C228.803 148.86 228.231 148.318 227.485 148.318C226.739 148.318 226.167 148.86 225.769 149.945C225.371 151.029 225.172 152.615 225.172 154.704C225.172 156.803 225.371 158.395 225.769 159.479C226.167 160.563 226.739 161.105 227.485 161.105ZM256.69 164.224C255.387 164.224 254.263 163.846 253.318 163.09C252.373 162.334 251.646 161.245 251.139 159.822C250.642 158.39 250.393 156.684 250.393 154.704C250.393 152.735 250.642 151.039 251.139 149.616C251.646 148.194 252.373 147.105 253.318 146.349C254.263 145.593 255.387 145.215 256.69 145.215C257.993 145.215 259.112 145.593 260.047 146.349C260.992 147.105 261.713 148.194 262.21 149.616C262.718 151.039 262.971 152.735 262.971 154.704C262.971 156.684 262.718 158.39 262.21 159.822C261.713 161.245 260.992 162.334 260.047 163.09C259.112 163.846 257.993 164.224 256.69 164.224ZM256.69 161.105C257.436 161.105 258.008 160.563 258.406 159.479C258.804 158.395 259.002 156.803 259.002 154.704C259.002 152.615 258.804 151.029 258.406 149.945C258.008 148.86 257.436 148.318 256.69 148.318C255.944 148.318 255.372 148.86 254.974 149.945C254.576 151.029 254.377 152.615 254.377 154.704C254.377 156.803 254.576 158.395 254.974 159.479C255.372 160.563 255.944 161.105 256.69 161.105Z"/>
</mask>
<path d="M197.4 164.224C196.425 164.224 195.54 164.139 194.744 163.97C193.948 163.791 193.327 163.557 192.879 163.269C192.431 162.97 192.208 162.647 192.208 162.299C192.208 162.13 192.287 161.876 192.446 161.538C192.605 161.19 192.794 160.882 193.013 160.613C193.242 160.344 193.451 160.21 193.64 160.21C193.71 160.21 193.869 160.265 194.117 160.374C194.625 160.583 195.127 160.757 195.624 160.896C196.132 161.036 196.714 161.105 197.37 161.105C198.246 161.105 198.937 160.867 199.444 160.389C199.952 159.902 200.205 159.23 200.205 158.375C200.205 157.4 199.947 156.664 199.429 156.167C198.922 155.669 198.076 155.42 196.893 155.42H194.013C193.635 155.42 193.376 155.341 193.237 155.182C193.098 155.023 193.028 154.754 193.028 154.376L193.536 146.483C193.555 146.115 193.65 145.851 193.819 145.692C193.988 145.523 194.267 145.438 194.655 145.438H202.473C202.752 145.438 202.951 145.543 203.07 145.752C203.199 145.961 203.264 146.299 203.264 146.766V147.468C203.264 147.836 203.199 148.104 203.07 148.273C202.951 148.442 202.752 148.527 202.473 148.527H197.117L196.848 152.317H197.534C199.683 152.317 201.329 152.77 202.473 153.675C203.627 154.57 204.204 156.102 204.204 158.27C204.204 159.673 203.876 160.822 203.219 161.717C202.563 162.602 201.717 163.244 200.683 163.642C199.658 164.03 198.564 164.224 197.4 164.224ZM227.485 164.224C226.182 164.224 225.058 163.846 224.113 163.09C223.168 162.334 222.442 161.245 221.935 159.822C221.437 158.39 221.188 156.684 221.188 154.704C221.188 152.735 221.437 151.039 221.935 149.616C222.442 148.194 223.168 147.105 224.113 146.349C225.058 145.593 226.182 145.215 227.485 145.215C228.788 145.215 229.907 145.593 230.842 146.349C231.787 147.105 232.508 148.194 233.006 149.616C233.513 151.039 233.767 152.735 233.767 154.704C233.767 156.684 233.513 158.39 233.006 159.822C232.508 161.245 231.787 162.334 230.842 163.09C229.907 163.846 228.788 164.224 227.485 164.224ZM227.485 161.105C228.231 161.105 228.803 160.563 229.201 159.479C229.599 158.395 229.798 156.803 229.798 154.704C229.798 152.615 229.599 151.029 229.201 149.945C228.803 148.86 228.231 148.318 227.485 148.318C226.739 148.318 226.167 148.86 225.769 149.945C225.371 151.029 225.172 152.615 225.172 154.704C225.172 156.803 225.371 158.395 225.769 159.479C226.167 160.563 226.739 161.105 227.485 161.105ZM256.69 164.224C255.387 164.224 254.263 163.846 253.318 163.09C252.373 162.334 251.646 161.245 251.139 159.822C250.642 158.39 250.393 156.684 250.393 154.704C250.393 152.735 250.642 151.039 251.139 149.616C251.646 148.194 252.373 147.105 253.318 146.349C254.263 145.593 255.387 145.215 256.69 145.215C257.993 145.215 259.112 145.593 260.047 146.349C260.992 147.105 261.713 148.194 262.21 149.616C262.718 151.039 262.971 152.735 262.971 154.704C262.971 156.684 262.718 158.39 262.21 159.822C261.713 161.245 260.992 162.334 260.047 163.09C259.112 163.846 257.993 164.224 256.69 164.224ZM256.69 161.105C257.436 161.105 258.008 160.563 258.406 159.479C258.804 158.395 259.002 156.803 259.002 154.704C259.002 152.615 258.804 151.029 258.406 149.945C258.008 148.86 257.436 148.318 256.69 148.318C255.944 148.318 255.372 148.86 254.974 149.945C254.576 151.029 254.377 152.615 254.377 154.704C254.377 156.803 254.576 158.395 254.974 159.479C255.372 160.563 255.944 161.105 256.69 161.105Z" fill="white"/>
<path d="M194.744 163.97L194.612 164.56L194.619 164.561L194.744 163.97ZM192.879 163.269L192.544 163.772L192.552 163.777L192.879 163.269ZM192.446 161.538L192.993 161.795L192.996 161.789L192.446 161.538ZM193.013 160.613L192.553 160.221L192.545 160.231L193.013 160.613ZM194.117 160.374L193.874 160.927L193.881 160.93L193.887 160.933L194.117 160.374ZM195.624 160.896L195.462 161.478L195.465 161.479L195.624 160.896ZM199.444 160.389L199.858 160.829L199.863 160.825L199.444 160.389ZM199.429 156.167L199.006 156.598L199.011 156.602L199.429 156.167ZM193.028 154.376L192.425 154.337L192.424 154.357V154.376H193.028ZM193.536 146.483L194.138 146.522L194.139 146.515L193.536 146.483ZM193.819 145.692L194.233 146.132L194.24 146.126L194.246 146.119L193.819 145.692ZM203.07 145.752L202.545 146.052L202.551 146.061L202.556 146.07L203.07 145.752ZM203.07 148.273L202.59 147.906L202.583 147.916L202.576 147.925L203.07 148.273ZM197.117 148.527V147.923H196.554L196.514 148.484L197.117 148.527ZM196.848 152.317L196.245 152.274L196.2 152.921H196.848V152.317ZM202.473 153.675L202.098 154.149L202.103 154.152L202.473 153.675ZM203.219 161.717L203.704 162.077L203.706 162.074L203.219 161.717ZM200.683 163.642L200.897 164.207L200.9 164.206L200.683 163.642ZM197.4 163.62C196.459 163.62 195.617 163.538 194.87 163.379L194.619 164.561C195.463 164.741 196.391 164.828 197.4 164.828V163.62ZM194.877 163.381C194.117 163.21 193.571 162.996 193.206 162.761L192.552 163.777C193.082 164.118 193.779 164.372 194.612 164.56L194.877 163.381ZM193.214 162.766C192.839 162.516 192.812 162.352 192.812 162.299H191.603C191.603 162.942 192.024 163.425 192.544 163.772L193.214 162.766ZM192.812 162.299C192.812 162.3 192.813 162.261 192.844 162.163C192.873 162.07 192.921 161.949 192.993 161.795L191.9 161.281C191.738 161.625 191.603 161.985 191.603 162.299H192.812ZM192.996 161.789C193.136 161.483 193.299 161.219 193.482 160.995L192.545 160.231C192.29 160.544 192.075 160.897 191.897 161.287L192.996 161.789ZM193.473 161.005C193.564 160.898 193.63 160.844 193.668 160.819C193.705 160.795 193.693 160.814 193.64 160.814V159.606C193.17 159.606 192.805 159.925 192.553 160.221L193.473 161.005ZM193.64 160.814C193.589 160.814 193.559 160.806 193.569 160.808C193.572 160.809 193.587 160.813 193.615 160.822C193.672 160.842 193.757 160.876 193.874 160.927L194.361 159.821C194.229 159.763 194.11 159.715 194.008 159.68C193.93 159.653 193.786 159.606 193.64 159.606V160.814ZM193.887 160.933C194.415 161.15 194.94 161.332 195.462 161.478L195.787 160.315C195.314 160.182 194.834 160.016 194.348 159.816L193.887 160.933ZM195.465 161.479C196.035 161.636 196.672 161.709 197.37 161.709V160.501C196.755 160.501 196.229 160.436 195.784 160.314L195.465 161.479ZM197.37 161.709C198.358 161.709 199.212 161.437 199.858 160.829L199.03 159.949C198.662 160.296 198.133 160.501 197.37 160.501V161.709ZM199.863 160.825C200.514 160.2 200.809 159.357 200.809 158.375H199.601C199.601 159.104 199.389 159.604 199.026 159.953L199.863 160.825ZM200.809 158.375C200.809 157.296 200.521 156.379 199.848 155.731L199.011 156.602C199.372 156.949 199.601 157.504 199.601 158.375H200.809ZM199.852 155.735C199.177 155.073 198.135 154.816 196.893 154.816V156.025C198.018 156.025 198.667 156.265 199.006 156.598L199.852 155.735ZM196.893 154.816H194.013V156.025H196.893V154.816ZM194.013 154.816C193.862 154.816 193.767 154.8 193.713 154.783C193.662 154.767 193.67 154.758 193.692 154.784L192.782 155.58C193.1 155.943 193.589 156.025 194.013 156.025V154.816ZM193.692 154.784C193.7 154.794 193.684 154.78 193.665 154.709C193.647 154.639 193.632 154.531 193.632 154.376H192.424C192.424 154.797 192.495 155.252 192.782 155.58L193.692 154.784ZM193.631 154.415L194.138 146.522L192.933 146.444L192.425 154.337L193.631 154.415ZM194.139 146.515C194.155 146.215 194.228 146.137 194.233 146.132L193.405 145.252C193.072 145.565 192.956 146.014 192.932 146.45L194.139 146.515ZM194.246 146.119C194.249 146.117 194.332 146.043 194.655 146.043V144.834C194.202 144.834 193.727 144.929 193.392 145.265L194.246 146.119ZM194.655 146.043H202.473V144.834H194.655V146.043ZM202.473 146.043C202.538 146.043 202.556 146.055 202.55 146.052C202.548 146.05 202.544 146.048 202.542 146.045C202.539 146.043 202.541 146.044 202.545 146.052L203.595 145.452C203.349 145.022 202.928 144.834 202.473 144.834V146.043ZM202.556 146.07C202.594 146.13 202.66 146.326 202.66 146.766H203.868C203.868 146.272 203.805 145.791 203.584 145.434L202.556 146.07ZM202.66 146.766V147.468H203.868V146.766H202.66ZM202.66 147.468C202.66 147.79 202.599 147.895 202.59 147.906L203.55 148.64C203.8 148.313 203.868 147.882 203.868 147.468H202.66ZM202.576 147.925C202.579 147.921 202.583 147.916 202.589 147.912C202.595 147.907 202.598 147.907 202.595 147.908C202.588 147.91 202.554 147.923 202.473 147.923V149.131C202.874 149.131 203.294 149.004 203.564 148.622L202.576 147.925ZM202.473 147.923H197.117V149.131H202.473V147.923ZM196.514 148.484L196.245 152.274L197.451 152.36L197.719 148.57L196.514 148.484ZM196.848 152.921H197.534V151.713H196.848V152.921ZM197.534 152.921C199.609 152.921 201.101 153.36 202.098 154.149L202.848 153.201C201.557 152.18 199.757 151.713 197.534 151.713V152.921ZM202.103 154.152C203.048 154.886 203.6 156.195 203.6 158.27H204.808C204.808 156.009 204.206 154.254 202.844 153.197L202.103 154.152ZM203.6 158.27C203.6 159.579 203.295 160.593 202.732 161.36L203.706 162.074C204.457 161.051 204.808 159.767 204.808 158.27H203.6ZM202.734 161.357C202.146 162.15 201.394 162.721 200.466 163.078L200.9 164.206C202.04 163.767 202.979 163.055 203.704 162.077L202.734 161.357ZM200.469 163.077C199.517 163.437 198.495 163.62 197.4 163.62V164.828C198.632 164.828 199.8 164.622 200.897 164.207L200.469 163.077ZM221.935 159.822L221.364 160.02L221.365 160.025L221.935 159.822ZM221.935 149.616L221.365 149.413L221.364 149.417L221.935 149.616ZM230.842 146.349L230.462 146.818L230.465 146.82L230.842 146.349ZM233.006 149.616L232.436 149.816L232.437 149.819L233.006 149.616ZM233.006 159.822L232.436 159.62L232.436 159.623L233.006 159.822ZM230.842 163.09L230.465 162.618L230.462 162.62L230.842 163.09ZM227.485 163.62C226.308 163.62 225.32 163.282 224.49 162.618L223.736 163.562C224.796 164.41 226.056 164.828 227.485 164.828V163.62ZM224.49 162.618C223.652 161.948 222.982 160.962 222.504 159.619L221.365 160.025C221.901 161.527 222.684 162.72 223.736 163.562L224.49 162.618ZM222.505 159.624C222.036 158.271 221.793 156.636 221.793 154.704H220.584C220.584 156.732 220.839 158.508 221.364 160.02L222.505 159.624ZM221.793 154.704C221.793 152.783 222.036 151.158 222.505 149.816L221.364 149.417C220.839 150.92 220.584 152.687 220.584 154.704H221.793ZM222.504 149.819C222.982 148.476 223.652 147.491 224.49 146.82L223.736 145.877C222.684 146.718 221.901 147.911 221.365 149.413L222.504 149.819ZM224.49 146.82C225.32 146.157 226.308 145.819 227.485 145.819V144.61C226.056 144.61 224.796 145.028 223.736 145.877L224.49 146.82ZM227.485 145.819C228.662 145.819 229.644 146.157 230.462 146.818L231.222 145.879C230.17 145.028 228.914 144.61 227.485 144.61V145.819ZM230.465 146.82C231.302 147.49 231.966 148.474 232.436 149.816L233.576 149.417C233.05 147.913 232.273 146.719 231.22 145.877L230.465 146.82ZM232.437 149.819C232.915 151.16 233.163 152.784 233.163 154.704H234.371C234.371 152.685 234.111 150.917 233.575 149.413L232.437 149.819ZM233.163 154.704C233.163 156.635 232.915 158.269 232.436 159.62L233.575 160.024C234.111 158.51 234.371 156.733 234.371 154.704H233.163ZM232.436 159.623C231.966 160.964 231.302 161.948 230.465 162.618L231.22 163.562C232.273 162.719 233.05 161.525 233.576 160.022L232.436 159.623ZM230.462 162.62C229.644 163.282 228.662 163.62 227.485 163.62V164.828C228.914 164.828 230.17 164.41 231.222 163.56L230.462 162.62ZM227.485 161.709C228.615 161.709 229.339 160.858 229.768 159.687L228.634 159.271C228.268 160.269 227.847 160.501 227.485 160.501V161.709ZM229.768 159.687C230.203 158.502 230.402 156.826 230.402 154.704H229.194C229.194 156.78 228.995 158.287 228.634 159.271L229.768 159.687ZM230.402 154.704C230.402 152.592 230.203 150.921 229.768 149.736L228.634 150.153C228.995 151.137 229.194 152.639 229.194 154.704H230.402ZM229.768 149.736C229.339 148.566 228.615 147.714 227.485 147.714V148.922C227.847 148.922 228.268 149.155 228.634 150.153L229.768 149.736ZM227.485 147.714C226.355 147.714 225.632 148.566 225.202 149.736L226.336 150.153C226.703 149.155 227.123 148.922 227.485 148.922V147.714ZM225.202 149.736C224.767 150.921 224.568 152.592 224.568 154.704H225.776C225.776 152.639 225.975 151.137 226.336 150.153L225.202 149.736ZM224.568 154.704C224.568 156.826 224.767 158.502 225.202 159.687L226.336 159.271C225.975 158.287 225.776 156.78 225.776 154.704H224.568ZM225.202 159.687C225.632 160.858 226.355 161.709 227.485 161.709V160.501C227.123 160.501 226.703 160.269 226.336 159.271L225.202 159.687ZM251.139 159.822L250.568 160.02L250.57 160.025L251.139 159.822ZM251.139 149.616L250.57 149.413L250.569 149.417L251.139 149.616ZM260.047 146.349L259.667 146.818L259.67 146.82L260.047 146.349ZM262.21 149.616L261.64 149.816L261.641 149.819L262.21 149.616ZM262.21 159.822L261.641 159.62L261.64 159.623L262.21 159.822ZM260.047 163.09L259.67 162.618L259.667 162.62L260.047 163.09ZM256.69 163.62C255.513 163.62 254.524 163.282 253.695 162.618L252.94 163.562C254.001 164.41 255.261 164.828 256.69 164.828V163.62ZM253.695 162.618C252.857 161.948 252.187 160.962 251.708 159.619L250.57 160.025C251.106 161.527 251.888 162.72 252.94 163.562L253.695 162.618ZM251.71 159.624C251.24 158.271 250.997 156.636 250.997 154.704H249.789C249.789 156.732 250.043 158.508 250.568 160.02L251.71 159.624ZM250.997 154.704C250.997 152.783 251.24 151.158 251.709 149.816L250.569 149.417C250.043 150.92 249.789 152.687 249.789 154.704H250.997ZM251.708 149.819C252.187 148.476 252.857 147.491 253.695 146.82L252.94 145.877C251.888 146.718 251.106 147.911 250.57 149.413L251.708 149.819ZM253.695 146.82C254.524 146.157 255.513 145.819 256.69 145.819V144.61C255.261 144.61 254.001 145.028 252.94 145.877L253.695 146.82ZM256.69 145.819C257.867 145.819 258.849 146.157 259.667 146.818L260.427 145.879C259.375 145.028 258.119 144.61 256.69 144.61V145.819ZM259.67 146.82C260.507 147.49 261.171 148.474 261.64 149.816L262.781 149.417C262.255 147.913 261.477 146.719 260.424 145.877L259.67 146.82ZM261.641 149.819C262.12 151.16 262.367 152.784 262.367 154.704H263.576C263.576 152.685 263.316 150.917 262.78 149.413L261.641 149.819ZM262.367 154.704C262.367 156.635 262.12 158.269 261.641 159.62L262.78 160.024C263.316 158.51 263.576 156.733 263.576 154.704H262.367ZM261.64 159.623C261.171 160.964 260.507 161.948 259.67 162.618L260.424 163.562C261.477 162.719 262.255 161.525 262.781 160.022L261.64 159.623ZM259.667 162.62C258.849 163.282 257.867 163.62 256.69 163.62V164.828C258.119 164.828 259.375 164.41 260.427 163.56L259.667 162.62ZM256.69 161.709C257.82 161.709 258.543 160.858 258.973 159.687L257.838 159.271C257.472 160.269 257.052 160.501 256.69 160.501V161.709ZM258.973 159.687C259.408 158.502 259.607 156.826 259.607 154.704H258.398C258.398 156.78 258.2 158.287 257.838 159.271L258.973 159.687ZM259.607 154.704C259.607 152.592 259.408 150.921 258.973 149.736L257.838 150.153C258.2 151.137 258.398 152.639 258.398 154.704H259.607ZM258.973 149.736C258.543 148.566 257.82 147.714 256.69 147.714V148.922C257.052 148.922 257.472 149.155 257.838 150.153L258.973 149.736ZM256.69 147.714C255.56 147.714 254.836 148.566 254.407 149.736L255.541 150.153C255.907 149.155 256.327 148.922 256.69 148.922V147.714ZM254.407 149.736C253.972 150.921 253.773 152.592 253.773 154.704H254.981C254.981 152.639 255.18 151.137 255.541 150.153L254.407 149.736ZM253.773 154.704C253.773 156.826 253.972 158.502 254.407 159.687L255.541 159.271C255.18 158.287 254.981 156.78 254.981 154.704H253.773ZM254.407 159.687C254.836 160.858 255.56 161.709 256.69 161.709V160.501C256.327 160.501 255.907 160.269 255.541 159.271L254.407 159.687Z" fill="white" mask="url(#path-4-outside-1_1996_7264)"/>
<path d="M105.117 198.281H462.226C463.419 198.281 464.601 198.516 465.703 198.974C466.805 199.431 467.806 200.102 468.65 200.947C469.493 201.792 470.162 202.795 470.619 203.9C471.075 205.004 471.31 206.187 471.309 207.382V219.54C471.309 221.953 470.352 224.267 468.649 225.973C466.945 227.679 464.635 228.638 462.226 228.638H114.2C111.791 228.638 109.481 227.679 107.778 225.973C106.075 224.267 105.118 221.953 105.117 219.54V198.281Z" fill="#D0DEF2"/>
<path fill-rule="evenodd" clip-rule="evenodd" d="M248.297 68.1173C245.783 66.2514 242.233 66.7764 240.367 69.2899C238.501 71.8034 239.026 75.3536 241.54 77.2194L253.132 85.8244L246.557 93.176C244.47 95.5093 244.67 99.0925 247.003 101.179C249.336 103.266 252.92 103.066 255.006 100.733L262.272 92.6095L274.256 101.506C276.769 103.371 280.319 102.846 282.185 100.333C284.051 97.8195 283.526 94.2693 281.012 92.4034L269.86 84.1246L276.727 76.4468C278.813 74.1135 278.614 70.5303 276.28 68.4435C273.947 66.3567 270.364 66.5566 268.277 68.8899L260.72 77.3396L248.297 68.1173ZM141.047 68.1176C138.534 66.2515 134.984 66.7761 133.118 69.2894C131.252 71.8027 131.776 75.3529 134.289 77.2191L145.878 85.8239L139.303 93.176C137.216 95.5093 137.416 99.0925 139.749 101.179C142.083 103.266 145.666 103.066 147.753 100.733L155.017 92.6098L166.998 101.505C169.511 103.371 173.061 102.847 174.927 100.333C176.793 97.8202 176.269 94.2699 173.755 92.4038L162.606 84.125L169.473 76.4468C171.56 74.1135 171.36 70.5303 169.026 68.4435C166.693 66.3567 163.11 66.5566 161.023 68.8899L153.467 77.3391L141.047 68.1176Z" fill="white"/>
<path d="M197.098 112.31C197.098 112.31 214.124 102.904 231.417 112.31" stroke="white" stroke-width="11.336" stroke-miterlimit="10" stroke-linecap="round"/>
<path d="M388.157 92.5062C386.187 92.5013 384.279 91.8224 382.747 90.5819C381.216 89.3415 380.154 87.6141 379.738 85.6861C378.137 78.456 377.121 72.9351 378.534 67.7709C380.23 61.647 384.704 58.0615 389.522 54.6298C392.772 52.3226 395.027 48.8211 395.278 45.7171C395.352 44.6945 395.185 43.6689 394.789 42.7233C394.393 41.7777 393.781 40.9388 393.002 40.2744C387.947 35.3614 379.763 43.0057 379.397 43.3359C379.397 43.3359 372.522 49.1662 367.415 43.0531C362.307 36.94 367.415 30.8793 367.415 30.8793C370.709 27.8146 374.5 25.3327 378.624 23.5394C388.455 19.3409 397.821 20.9137 405.002 27.8602C407.6 30.2989 409.62 33.2898 410.914 36.613C412.207 39.9363 412.74 43.5076 412.475 47.0645C411.842 55.3376 406.995 63.4593 399.493 68.7723C395.972 71.2733 395.307 72.1591 395.145 72.4427C394.742 73.7219 396.071 79.7144 396.573 81.9742C396.851 83.2376 396.843 84.5474 396.55 85.8074C396.257 87.0674 395.686 88.2457 394.879 89.2558C394.072 90.2659 393.049 91.0821 391.886 91.6445C390.722 92.207 389.448 92.5014 388.157 92.5062Z" fill="#ACC3E3"/>
<path d="M392.318 122.505C397.847 122.505 402.328 118.015 402.328 112.476C402.328 106.936 397.847 102.446 392.318 102.446C386.79 102.446 382.309 106.936 382.309 112.476C382.309 118.015 386.79 122.505 392.318 122.505Z" fill="#ACC3E3"/>
</g>
<defs>
<clipPath id="clip0_1996_7264">
<rect width="509" height="257" fill="white"/>
</clipPath>
</defs>
</svg>
